<svg width="40" height="40" viewBox="0 0 31 30" fill="none" xmlns="http://www.w3.org/2000/svg">
<path d="M15.4641 0.971814C11.9835 0.968884 8.61557 2.20544 5.9638 4.45993C3.31203 6.71442 1.54971 9.8395 0.992599 13.2752C0.435489 16.711 1.12 20.2328 2.92348 23.2097C4.72697 26.1866 7.53156 28.4241 10.8347 29.5211C11.5654 29.6478 11.7974 29.2185 11.7974 28.8318C11.7974 28.4811 11.8054 27.5105 11.7974 26.2851C7.72141 27.1678 6.88008 24.3545 6.88008 24.3545C6.61105 23.469 6.03405 22.7089 5.25341 22.2118C3.92408 21.3025 5.35341 21.3198 5.35341 21.3198C5.8176 21.3837 6.26107 21.5527 6.64997 21.8141C7.03887 22.0754 7.36293 22.4221 7.59741 22.8278C7.79582 23.1892 8.06388 23.5076 8.38609 23.7648C8.7083 24.0219 9.07827 24.2126 9.47464 24.326C9.871 24.4393 10.2859 24.4729 10.6953 24.425C11.1048 24.377 11.5006 24.2483 11.8601 24.0465C11.9273 23.3059 12.2569 22.6136 12.7894 22.0945C9.53741 21.7225 6.11741 20.4678 6.11741 14.8518C6.09674 13.3963 6.63724 11.9887 7.62674 10.9211C7.17842 9.65821 7.22945 8.27171 7.76941 7.04515C7.76941 7.04515 9.00141 6.65181 11.7961 8.54915C14.1975 7.89047 16.732 7.89047 19.1334 8.54915C21.9361 6.65315 23.1574 7.04515 23.1574 7.04515C23.6974 8.27181 23.7494 9.65848 23.3027 10.9211C24.2925 11.9895 24.8322 13.3983 24.8094 14.8545C24.8094 20.4851 21.3841 21.7211 18.1214 22.0811C18.4722 22.4334 18.7432 22.8569 18.9162 23.3229C19.0892 23.7889 19.1601 24.2867 19.1241 24.7825V28.8371C19.1241 29.2291 19.3601 29.6625 20.1041 29.5198C23.4071 28.4217 26.2112 26.1833 28.0138 23.2056C29.8165 20.2279 30.4998 16.7056 29.9414 13.2699C29.3829 9.83412 27.6193 6.70953 24.9664 4.456C22.3136 2.20247 18.9449 0.967297 15.4641 0.971814Z" fill="black"/>
</svg>
